<svg width="18" height="18" viewBox="0 0 18 18" fill="none" xmlns="http://www.w3.org/2000/svg">
    <path d="M0 3C0 1.34315 1.34315 0 3 0H15C16.6569 0 18 1.34315 18 3V15C18 16.6569 16.6569 18 15 18H3C1.34315 18 0 16.6569 0 15V3Z"/>
    <path d="M12.9453 5.29279L14.3593 6.70722L7.67751 13.3869L3.33041 9.46789L4.66959 7.98243L7.60639 10.63L12.9453 5.29279Z" fill="white"/>
    <path d="M0 3C0 1.34315 1.34315 0 3 0H15C16.6569 0 18 1.34315 18 3V15C18 16.6569 16.6569 18 15 18H3C1.34315 18 0 16.6569 0 15V3Z" />
    <path d="M12.9453 5.29279L14.3593 6.70722L7.67751 13.3869L3.33041 9.46789L4.66959 7.98243L7.60639 10.63L12.9453 5.29279Z" fill="black"/>
</svg>
